<?xml version="1.0" encoding="UTF-8" standalone="no"?>
<svg
   xmlns:dc="http://purl.org/dc/elements/1.1/"
   xmlns:cc="http://creativecommons.org/ns#"
   xmlns:rdf="http://www.w3.org/1999/02/22-rdf-syntax-ns#"
   xmlns:svg="http://www.w3.org/2000/svg"
   xmlns="http://www.w3.org/2000/svg"
   height="228.86992pt"
   version="1.1"
   viewBox="-72 -72 146.92075 114.43496"
   width="293.84073pt"
   id="svg4136">
  <metadata
     id="metadata4221">
    <rdf:RDF>
      <cc:Work
         rdf:about="">
        <dc:format>image/svg+xml</dc:format>
        <dc:type
           rdf:resource="http://purl.org/dc/dcmitype/StillImage" />
        <dc:title></dc:title>
      </cc:Work>
    </rdf:RDF>
  </metadata>
  <defs
     id="defs4138" />
  <path
     style="fill:none;fill-rule:evenodd;stroke:#aaaaaa;stroke-width:0.20000054;stroke-linecap:butt;stroke-linejoin:miter;stroke-miterlimit:4;stroke-dasharray:none;stroke-opacity:1"
     d="m -50.210011,-15.094398 113.879106,0 z"
     id="path4834" />
  <path
     style="fill:#ff0000"
     id="path4925"
     d="m 8.1337149,-15.097884 c 0,-0.7813 -0.63281,-1.418 -1.41797,-1.418 -0.78125,0 -1.41406,0.6367 -1.41406,1.418 0,0.7812 0.63281,1.4179 1.41406,1.4179 0.78516,0 1.41797,-0.6367 1.41797,-1.4179 z" />
  <path
     style="fill:#ffe6cc"
     id="path4157"
     d="M 6.7085619,-15.104842 40.032812,-60.972056 c -19.8672,-14.4336 -46.7773291,-14.4336 -66.6445,0 l 33.3202499,45.867214" />
  <path
     style="fill:none;stroke:#000000;stroke-width:0.60000199;stroke-miterlimit:10.03750038"
     id="path4907"
     stroke-miterlimit="10.0375"
     d="m 6.7157449,-15.097884 0,-13.349918" />
  <path
     style="fill:none;stroke:#000000;stroke-width:0.47999299;stroke-linecap:round;stroke-linejoin:round;stroke-miterlimit:10.03750038"
     id="path4909"
     stroke-miterlimit="10.0375"
     d="m 4.8837149,-27.072902 c 0.6875,-0.1133 1.71875,-1.375 1.83203,-1.7187 0.11719,0.3437 1.14844,1.6054 1.8359501,1.7187" />
  <path
     style="fill:none;stroke:#000000;stroke-width:0.39999399;stroke-dasharray:2.98883, 2.98883"
     id="path4155"
     d="m 63.403912,-15.104842 c 0,-31.312514 -25.3828,-56.695314 -56.6953501,-56.695314 -31.3085499,0 -56.6913499,25.3828 -56.6913499,56.695314 0,31.312503 25.3828,56.695303 56.6913499,56.695303 31.3125501,0 56.6953501,-25.3828 56.6953501,-56.695303" />
  <path
     style="fill:none;fill-opacity:1;fill-rule:evenodd;stroke:#a0a0a0;stroke-width:0.40000105;stroke-linecap:butt;stroke-linejoin:miter;stroke-opacity:1;stroke-miterlimit:4;stroke-dasharray:none"
     d="M 40.81985,41.366348 -71.223425,-23.484033"
     id="path4289-7" />
  <path
     d="m 32.274375,35.96832 c 0,-0.472597 -0.3789,-0.851498 -0.8515,-0.851498 -0.4688,0 -0.8477,0.378901 -0.8477,0.851498 0,0.468801 0.3789,0.847702 0.8477,0.847702 0.4726,0 0.8515,-0.378901 0.8515,-0.847702 z"
     id="path4293-2"
     style="fill:#ff00ff;fill-opacity:1" />
  <path
     style="fill:#ff00ff;fill-opacity:1"
     id="path4366"
     d="m -48.970603,-11.091977 c 0,-0.472597 -0.3789,-0.851498 -0.8515,-0.851498 -0.4688,0 -0.8477,0.378901 -0.8477,0.851498 0,0.468801 0.3789,0.847702 0.8477,0.847702 0.4726,0 0.8515,-0.378901 0.8515,-0.847702 z" />
  <path
     d="m 42.102069,41.587399 c 0,-0.472597 -0.3789,-0.851498 -0.8515,-0.851498 -0.4688,0 -0.8477,0.378901 -0.8477,0.851498 0,0.468801 0.3789,0.847702 0.8477,0.847702 0.4726,0 0.8515,-0.378901 0.8515,-0.847702 z"
     id="path4368"
     style="fill:#000000;fill-opacity:1" />
  <path
     style="fill:#000000;fill-opacity:1"
     id="path4370"
     d="m -70.3008,-23.496414 c 0,-0.472597 -0.3789,-0.851498 -0.8515,-0.851498 -0.4688,0 -0.8477,0.378901 -0.8477,0.851498 0,0.468801 0.3789,0.847702 0.8477,0.847702 0.4726,0 0.8515,-0.378901 0.8515,-0.847702 z" />
  <path
     id="path4378"
     d="M 31.416981,-54.382953 41.964093,-70.29361"
     style="fill:none;fill-rule:evenodd;stroke:#000000;stroke-width:0.40000105px;stroke-linecap:butt;stroke-linejoin:miter;stroke-opacity:1" />
  <path
     d="m 32.077647,-54.208149 c 0,-0.472597 -0.3789,-0.851498 -0.8515,-0.851498 -0.4688,0 -0.8477,0.378901 -0.8477,0.851498 0,0.468801 0.3789,0.847702 0.8477,0.847702 0.4726,0 0.8515,-0.378901 0.8515,-0.847702 z"
     id="path4380"
     style="fill:#00ff00;fill-opacity:1" />
  <path
     style="fill:#000000;fill-opacity:1"
     id="path4382"
     d="m 42.799293,-70.148751 c 0,-0.472597 -0.3789,-0.851498 -0.8515,-0.851498 -0.4688,0 -0.8477,0.378901 -0.8477,0.851498 0,0.468801 0.3789,0.847702 0.8477,0.847702 0.4726,0 0.8515,-0.378901 0.8515,-0.847702 z" />
  <path
     style="fill:#ff0000;fill-opacity:1"
     id="path4384"
     d="m 37.984306,-62.976251 c 0,-0.472597 -0.3789,-0.851498 -0.8515,-0.851498 -0.4688,0 -0.8477,0.378901 -0.8477,0.851498 0,0.468801 0.3789,0.847702 0.8477,0.847702 0.4726,0 0.8515,-0.378901 0.8515,-0.847702 z" />
  <path
     id="path4386"
     d="m 31.038873,-68.818699 -48.958341,0"
     style="fill:none;fill-rule:evenodd;stroke:#000000;stroke-width:0.40000105px;stroke-linecap:butt;stroke-linejoin:miter;stroke-opacity:1" />
  <path
     d="m -17.378203,-68.837187 c 0,-0.472597 -0.3789,-0.851498 -0.8515,-0.851498 -0.4688,0 -0.8477,0.378901 -0.8477,0.851498 0,0.468801 0.3789,0.847702 0.8477,0.847702 0.4726,0 0.8515,-0.378901 0.8515,-0.847702 z"
     id="path4388"
     style="fill:#000000;fill-opacity:1" />
  <path
     style="fill:#000000;fill-opacity:1"
     id="path4390"
     d="m 32.070747,-68.854729 c 0,-0.472597 -0.3789,-0.851498 -0.8515,-0.851498 -0.4688,0 -0.8477,0.378901 -0.8477,0.851498 0,0.468801 0.3789,0.847702 0.8477,0.847702 0.4726,0 0.8515,-0.378901 0.8515,-0.847702 z" />
  <path
     d="m -10.476919,-68.803867 c 0,-0.472597 -0.3789,-0.851498 -0.8515,-0.851498 -0.4688,0 -0.8477,0.378901 -0.8477,0.851498 0,0.468801 0.3789,0.847702 0.8477,0.847702 0.4726,0 0.8515,-0.378901 0.8515,-0.847702 z"
     id="path4392"
     style="fill:#ff0000;fill-opacity:1" />
  <path
     style="fill:#ff0000;fill-opacity:1"
     id="path4394"
     d="m 26.124597,-68.803867 c 0,-0.472597 -0.3789,-0.851498 -0.8515,-0.851498 -0.4688,0 -0.8477,0.378901 -0.8477,0.851498 0,0.468801 0.3789,0.847702 0.8477,0.847702 0.4726,0 0.8515,-0.378901 0.8515,-0.847702 z" />
  <path
     id="path4398"
     d="m -22.516385,-49.170924 0,-19.22091"
     style="fill:none;fill-rule:evenodd;stroke:#000000;stroke-width:0.40000105px;stroke-linecap:butt;stroke-linejoin:miter;stroke-opacity:1" />
  <path
     style="fill:#ff0000;fill-opacity:1"
     id="path4400"
     d="m -21.620956,-63.691923 c 0,-0.472597 -0.3789,-0.851498 -0.8515,-0.851498 -0.4688,0 -0.8477,0.378901 -0.8477,0.851498 0,0.468801 0.3789,0.847702 0.8477,0.847702 0.4726,0 0.8515,-0.378901 0.8515,-0.847702 z" />
  <path
     style="fill:#000000;fill-opacity:1"
     id="path4402"
     d="m 31.825176,-33.921844 c 0,-0.472597 -0.3789,-0.851498 -0.8515,-0.851498 -0.4688,0 -0.8477,0.378901 -0.8477,0.851498 0,0.468801 0.3789,0.847702 0.8477,0.847702 0.4726,0 0.8515,-0.378901 0.8515,-0.847702 z" />
  <path
     d="m -21.672236,-68.632709 c 0,-0.472597 -0.3789,-0.851498 -0.8515,-0.851498 -0.4688,0 -0.8477,0.378901 -0.8477,0.851498 0,0.468801 0.3789,0.847702 0.8477,0.847702 0.4726,0 0.8515,-0.378901 0.8515,-0.847702 z"
     id="path4404"
     style="fill:#000000;fill-opacity:1" />
  <path
     id="path4406"
     d="M -51.14327,17.488826 36.373203,-70.027656"
     style="fill:none;fill-rule:evenodd;stroke:#000000;stroke-width:0.40000105px;stroke-linecap:butt;stroke-linejoin:miter;stroke-opacity:1" />
  <path
     d="m 37.380626,-70.148751 c 0,-0.472597 -0.3789,-0.851498 -0.8515,-0.851498 -0.4688,0 -0.8477,0.378901 -0.8477,0.851498 0,0.468801 0.3789,0.847702 0.8477,0.847702 0.4726,0 0.8515,-0.378901 0.8515,-0.847702 z"
     id="path4408"
     style="fill:#000000;fill-opacity:1" />
  <path
     d="m 32.872362,-65.736701 c 0,-0.472597 -0.3789,-0.851498 -0.8515,-0.851498 -0.4688,0 -0.8477,0.378901 -0.8477,0.851498 0,0.468801 0.3789,0.847702 0.8477,0.847702 0.4726,0 0.8515,-0.378901 0.8515,-0.847702 z"
     id="path4410"
     style="fill:#ff0000;fill-opacity:1" />
  <path
     d="m -50.492298,17.566468 c 0,-0.472597 -0.3789,-0.851498 -0.8515,-0.851498 -0.4688,0 -0.8477,0.378901 -0.8477,0.851498 0,0.468801 0.3789,0.847702 0.8477,0.847702 0.4726,0 0.8515,-0.378901 0.8515,-0.847702 z"
     id="path4412"
     style="fill:#000000;fill-opacity:1" />
  <path
     id="path4414"
     d="m -15.321662,-33.888066 45.978858,0"
     style="fill:none;fill-rule:evenodd;stroke:#00ff00;stroke-width:0.40000105px;stroke-linecap:butt;stroke-linejoin:miter;stroke-opacity:1" />
  <path
     d="m -14.732031,-33.921844 c 0,-0.472597 -0.3789,-0.851498 -0.8515,-0.851498 -0.4688,0 -0.8477,0.378901 -0.8477,0.851498 0,0.468801 0.3789,0.847702 0.8477,0.847702 0.4726,0 0.8515,-0.378901 0.8515,-0.847702 z"
     id="path4416"
     style="fill:#000000;fill-opacity:1" />
  <path
     id="path4420"
     d="m -27.660745,-41.57029 89.838039,0"
     style="fill:none;fill-rule:evenodd;stroke:#ff0000;stroke-width:0.40000105px;stroke-linecap:butt;stroke-linejoin:miter;stroke-opacity:1" />
  <path
     style="fill:#000000;fill-opacity:1"
     id="path4422"
     d="m -27.216338,-41.604068 c 0,-0.472597 -0.3789,-0.851498 -0.8515,-0.851498 -0.4688,0 -0.8477,0.378901 -0.8477,0.851498 0,0.468801 0.3789,0.847702 0.8477,0.847702 0.4726,0 0.8515,-0.378901 0.8515,-0.847702 z" />
  <path
     d="m 62.422654,-41.604068 c 0,-0.472597 -0.3789,-0.851498 -0.8515,-0.851498 -0.4688,0 -0.8477,0.378901 -0.8477,0.851498 0,0.468801 0.3789,0.847702 0.8477,0.847702 0.4726,0 0.8515,-0.378901 0.8515,-0.847702 z"
     id="path4424"
     style="fill:#000000;fill-opacity:1" />
  <path
     style="fill:#0000ff;fill-opacity:1"
     id="path4428"
     d="m 57.613048,-41.714606 c 0,-0.472597 -0.3789,-0.851498 -0.8515,-0.851498 -0.4688,0 -0.8477,0.378901 -0.8477,0.851498 0,0.468801 0.3789,0.847702 0.8477,0.847702 0.4726,0 0.8515,-0.378901 0.8515,-0.847702 z" />
  <path
     style="fill:#000000;fill-opacity:1"
     id="path4430"
     d="m -21.672236,-49.547144 c 0,-0.472597 -0.3789,-0.851498 -0.8515,-0.851498 -0.4688,0 -0.8477,0.378901 -0.8477,0.851498 0,0.468801 0.3789,0.847702 0.8477,0.847702 0.4726,0 0.8515,-0.378901 0.8515,-0.847702 z" />
</svg>
