<?xml version="1.0" encoding="UTF-8" standalone="no"?>
<svg
   xmlns:dc="http://purl.org/dc/elements/1.1/"
   xmlns:cc="http://creativecommons.org/ns#"
   xmlns:rdf="http://www.w3.org/1999/02/22-rdf-syntax-ns#"
   xmlns:svg="http://www.w3.org/2000/svg"
   xmlns="http://www.w3.org/2000/svg"
   height="132.0518pt"
   version="1.1"
   viewBox="-72 -72 69.501195 66.025903"
   width="139.00203pt"
   id="svg4340">
  <metadata
     id="metadata4425">
    <rdf:RDF>
      <cc:Work
         rdf:about="">
        <dc:format>image/svg+xml</dc:format>
        <dc:type
           rdf:resource="http://purl.org/dc/dcmitype/StillImage" />
        <dc:title></dc:title>
      </cc:Work>
    </rdf:RDF>
  </metadata>
  <defs
     id="defs4342" />
  <g
     id="layer2"
     style="display:inline"
     transform="translate(-86.11254,-75.723426)">
    <path
       transform="translate(2.6074288e-7,-1.3291051e-6)"
       style="fill:#00ff00;fill-opacity:1"
       id="path4421"
       d="m 49.830599,68.331517 c 0,-0.7813 -0.63281,-1.418 -1.41797,-1.418 -0.78125,0 -1.41406,0.6367 -1.41406,1.418 0,0.7812 0.63281,1.4179 1.41406,1.4179 0.78516,0 1.41797,-0.6367 1.41797,-1.4179 z" />
    <path
       style="display:inline;fill:#ffe6cc"
       d="m 301.03516,209.09766 c -29.23575,0 -58.4708,9.02054 -83.30469,27.0625 l 83.30078,114.66796 35.72461,-49.17187 0.36133,-87.89258 c -11.81792,-3.1071 -23.94953,-4.66601 -36.08203,-4.66601 z"
       id="path4361"
       transform="matrix(0.40000107,0,0,0.40000107,-72,-72.00033)" />
    <path
       transform="translate(2.6074288e-7,-1.3291051e-6)"
       id="path4399"
       d="m 63.474247,4.5748416 c 0,-0.4726 -0.3789,-0.8515 -0.8515,-0.8515 -0.4688,0 -0.8477,0.3789 -0.8477,0.8515 0,0.4688 0.3789,0.8477 0.8477,0.8477 0.4726,0 0.8515,-0.3789 0.8515,-0.8477 z" />
    <path
       id="path4401"
       d="m 63.383216,64.53854 c 0,-0.4726 -0.3789,-0.8515 -0.8515,-0.8515 -0.4688,0 -0.8477,0.3789 -0.8477,0.8515 0,0.4688 0.3789,0.8477 0.8477,0.8477 0.4726,0 0.8515,-0.3789 0.8515,-0.8477 z" />
    <path
       style="fill:none;stroke:#000000;stroke-width:0.80000204;stroke-miterlimit:1;stroke-dasharray:none"
       id="path4371"
       stroke-miterlimit="10.0375"
       d="M 62.652926,4.9317202 62.548142,64.732069" />
    <path
       d="m 16.512546,22.670572 c 0,-0.667516 -0.53517,-1.202687 -1.202685,-1.202687 -0.662148,0 -1.197321,0.535171 -1.197321,1.202687 0,0.662149 0.535173,1.19732 1.197321,1.19732 0.667515,0 1.202685,-0.535171 1.202685,-1.19732 z"
       id="path4487"
       style="fill:#0000ff;fill-opacity:1" />
    <path
       style="fill:#ff0000;fill-opacity:1"
       id="path4489"
       d="m 63.809611,13.880815 c 0,-0.667516 -0.53517,-1.202687 -1.202685,-1.202687 -0.662148,0 -1.197321,0.535171 -1.197321,1.202687 0,0.662149 0.535173,1.19732 1.197321,1.19732 0.667515,0 1.202685,-0.535171 1.202685,-1.19732 z" />
    <path
       d="m 63.834625,49.114291 c 0,-0.667515 -0.53517,-1.202686 -1.202685,-1.202686 -0.662148,0 -1.197321,0.535171 -1.197321,1.202686 0,0.662149 0.535173,1.19732 1.197321,1.19732 0.667515,0 1.202685,-0.535171 1.202685,-1.19732 z"
       id="path4491"
       style="fill:#0000ff;fill-opacity:1" />
    <path
       style="fill:#000000;fill-opacity:1"
       id="path8455"
       d="m 83.613736,21.963615 c 0,-0.667516 -0.53517,-1.202687 -1.202685,-1.202687 -0.662148,0 -1.197321,0.535171 -1.197321,1.202687 0,0.662149 0.535173,1.19732 1.197321,1.19732 0.667515,0 1.202685,-0.535171 1.202685,-1.19732 z" />
    <g
       id="g8457">
      <path
         id="path8450"
         d="M -37.515576,-7.4486755 -4.1655067,-53.163223"
         style="display:inline;fill:none;fill-rule:evenodd;stroke:#000000;stroke-width:0.40000102px;stroke-linecap:butt;stroke-linejoin:miter;stroke-opacity:1"
         transform="translate(86.112541,75.723517)" />
      <path
         style="fill:none;stroke:#000000;stroke-width:0.47999299;stroke-linecap:round;stroke-linejoin:round;stroke-miterlimit:10.03750038"
         id="path8453"
         stroke-miterlimit="10.0375"
         d="m 79.439904,23.128672 c 0.643074,0.268236 2.186223,-0.255267 2.464423,-0.486712 -0.08275,0.353576 0.1232,1.970036 0.646202,2.430446" />
    </g>
  </g>
</svg>
