<?xml version="1.0" encoding="UTF-8" standalone="no"?>
<svg
   xmlns:dc="http://purl.org/dc/elements/1.1/"
   xmlns:cc="http://creativecommons.org/ns#"
   xmlns:rdf="http://www.w3.org/1999/02/22-rdf-syntax-ns#"
   xmlns:svg="http://www.w3.org/2000/svg"
   xmlns="http://www.w3.org/2000/svg"
   height="80pt"
   version="1.1"
   viewBox="-72 -72 68.000181 40"
   width="136pt"
   id="svg4505">
  <metadata
     id="metadata4590">
    <rdf:RDF>
      <cc:Work
         rdf:about="">
        <dc:format>image/svg+xml</dc:format>
        <dc:type
           rdf:resource="http://purl.org/dc/dcmitype/StillImage" />
        <dc:title></dc:title>
      </cc:Work>
    </rdf:RDF>
  </metadata>
  <defs
     id="defs4507" />
  <g
     id="layer4"
     transform="translate(-46.443861,-21.718657)">
    <path
       style="fill:#00ff00;fill-opacity:1"
       id="path4586"
       d="m 9.9621554,-12.29551 c 0,-0.7813 -0.6328099,-1.418 -1.4179699,-1.418 -0.78125,0 -1.41406,0.6367 -1.41406,1.418 0,0.7812 0.63281,1.4179 1.41406,1.4179 0.78516,0 1.4179699,-0.6367 1.4179699,-1.4179 z" />
    <path
       style="fill:#ffe6cc;fill-opacity:1"
       d="m 41.793701,-58.215956 0,0.156251 0.075,-0.103126 c -0.02484,-0.01804 -0.05015,-0.03513 -0.075,-0.05313 z m -66.497047,0.0016 c -0.02408,0.01745 -0.04857,0.03407 -0.07266,0.05156 l 0.07266,0.1 0,-0.151563 z m 6.886738,9.631276 26.3610081,36.287594 26.3641269,-36.287594 -52.725135,0 z"
       id="path4526"
       clip-path="none" />
    <path
       style="fill:none;stroke:#000000;stroke-width:0.80000214;stroke-miterlimit:10.03750038;stroke-dasharray:none"
       id="path4536"
       stroke-miterlimit="10.0375"
       d="m -23.75813,-48.456505 64.58288,0" />
    <path
       id="path4564"
       d="m -23.531501,-48.460759 c 0,-0.4726 -0.3789,-0.8515 -0.8515,-0.8515 -0.4688,0 -0.8477,0.3789 -0.8477,0.8515 0,0.4688 0.3789,0.8477 0.8477,0.8477 0.4726,0 0.8515,-0.3789 0.8515,-0.8477 z" />
    <path
       id="path4566"
       d="m 41.974566,-48.456505 c 0,-0.4726 -0.3789,-0.8515 -0.8515,-0.8515 -0.468801,0 -0.847701,0.3789 -0.847701,0.8515 0,0.4688 0.3789,0.8477 0.847701,0.8477 0.4726,0 0.8515,-0.3789 0.8515,-0.8477 z" />
    <path
       d="m -16.347033,-48.46022 c 0,-0.661209 -0.536275,-1.200045 -1.201659,-1.200045 -0.662071,0 -1.198347,0.538836 -1.198347,1.200045 0,0.661125 0.536276,1.199961 1.198347,1.199961 0.665384,0 1.201659,-0.538836 1.201659,-1.199961 z"
       id="path4683"
       style="fill:#0000ff;fill-opacity:1" />
    <path
       style="fill:#0000ff;fill-opacity:1"
       id="path4685"
       d="m 35.985722,-48.498659 c 0,-0.661209 -0.536275,-1.200045 -1.201659,-1.200045 -0.662071,0 -1.198347,0.538836 -1.198347,1.200045 0,0.661125 0.536276,1.199961 1.198347,1.199961 0.665384,0 1.201659,-0.538836 1.201659,-1.199961 z" />
  </g>
</svg>
