<?xml version="1.0" encoding="UTF-8" standalone="no"?>
<svg
   xmlns:dc="http://purl.org/dc/elements/1.1/"
   xmlns:cc="http://creativecommons.org/ns#"
   xmlns:rdf="http://www.w3.org/1999/02/22-rdf-syntax-ns#"
   xmlns:svg="http://www.w3.org/2000/svg"
   xmlns="http://www.w3.org/2000/svg"
   id="svg4136"
   width="257.66443pt"
   viewBox="-72 -72 128.83255 113.79031"
   version="1.1"
   height="227.58061pt">
  <metadata
     id="metadata4221">
    <rdf:RDF>
      <cc:Work
         rdf:about="">
        <dc:format>image/svg+xml</dc:format>
        <dc:type
           rdf:resource="http://purl.org/dc/dcmitype/StillImage" />
        <dc:title></dc:title>
      </cc:Work>
    </rdf:RDF>
  </metadata>
  <defs
     id="defs4138" />
  <path
     id="path4834"
     d="m -65.88643,-15.094398 113.879106,0 z"
     style="fill:none;fill-rule:evenodd;stroke:#aaaaaa;stroke-width:0.20000054;stroke-linecap:butt;stroke-linejoin:miter;stroke-miterlimit:4;stroke-dasharray:none;stroke-opacity:1" />
  <path
     d="m -7.5427041,-15.097884 c 0,-0.7813 -0.63281,-1.418 -1.41797,-1.418 -0.78125,0 -1.4140599,0.6367 -1.4140599,1.418 0,0.7812 0.6328099,1.4179 1.4140599,1.4179 0.78516,0 1.41797,-0.6367 1.41797,-1.4179 z"
     id="path4925"
     style="fill:#ff0000" />
  <path
     d="M -8.9678571,-15.104842 24.356393,-60.972056 c -19.8672,-14.4336 -46.777329,-14.4336 -66.6445,0 l 33.3202499,45.867214"
     id="path4157"
     style="fill:#ffe6cc" />
  <path
     style="fill:none;fill-rule:evenodd;stroke:#000000;stroke-width:0.40000105px;stroke-linecap:butt;stroke-linejoin:miter;stroke-opacity:1"
     d="M 24.354936,-60.975435 -8.9607937,-15.124338 -42.28818,-60.970104"
     id="path8170" />
  <path
     d="m 47.727493,-15.104842 c 0,-31.312514 -25.3828,-56.695314 -56.6953501,-56.695314 -31.3085499,0 -56.6913499,25.3828 -56.6913499,56.695314 0,31.312503 25.3828,56.695303 56.6913499,56.695303 31.3125501,0 56.6953501,-25.3828 56.6953501,-56.695303"
     id="path4155"
     style="fill:none;stroke:#000000;stroke-width:0.39999399;stroke-dasharray:2.98883, 2.98883" />
  <path
     style="fill:#000000;fill-opacity:1"
     id="path4416"
     d="m -30.40845,-33.921844 c 0,-0.472597 -0.3789,-0.851498 -0.8515,-0.851498 -0.4688,0 -0.8477,0.378901 -0.8477,0.851498 0,0.468801 0.3789,0.847702 0.8477,0.847702 0.4726,0 0.8515,-0.378901 0.8515,-0.847702 z" />
  <path
     style="fill:none;fill-rule:evenodd;stroke:#00ff00;stroke-width:0.40000105px;stroke-linecap:butt;stroke-linejoin:miter;stroke-opacity:1"
     d="m -43.337164,-41.57029 89.838039,0"
     id="path4420" />
  <path
     d="m -42.892757,-41.604068 c 0,-0.472597 -0.3789,-0.851498 -0.8515,-0.851498 -0.4688,0 -0.8477,0.378901 -0.8477,0.851498 0,0.468801 0.3789,0.847702 0.8477,0.847702 0.4726,0 0.8515,-0.378901 0.8515,-0.847702 z"
     id="path4422"
     style="fill:#000000;fill-opacity:1" />
  <path
     style="fill:#000000;fill-opacity:1"
     id="path4424"
     d="m 46.746235,-41.604068 c 0,-0.472597 -0.3789,-0.851498 -0.8515,-0.851498 -0.4688,0 -0.8477,0.378901 -0.8477,0.851498 0,0.468801 0.3789,0.847702 0.8477,0.847702 0.4726,0 0.8515,-0.378901 0.8515,-0.847702 z" />
  <path
     id="path5620"
     d="m -54.007082,-22.097788 12.498466,-12.498469"
     style="fill:none;fill-rule:evenodd;stroke:#ff0000;stroke-width:0.40000105px;stroke-linecap:butt;stroke-linejoin:miter;stroke-opacity:1" />
  <path
     id="path5622"
     d="M -71.096821,-5.0080471 12.056238,-28.984698"
     style="fill:none;fill-rule:evenodd;stroke:#00ff00;stroke-width:0.40000105px;stroke-linecap:butt;stroke-linejoin:miter;stroke-opacity:1" />
  <path
     id="path5624"
     d="M -56.55779,-61.378686 55.572763,-31.196701"
     style="fill:none;fill-rule:evenodd;stroke:#00ff00;stroke-width:0.40000105px;stroke-linecap:butt;stroke-linejoin:miter;stroke-opacity:1" />
  <path
     id="path5626"
     d="M -68.035973,-19.292009 -43.549181,-65.96996"
     style="fill:none;fill-rule:evenodd;stroke:#ff0000;stroke-width:0.40000105px;stroke-linecap:butt;stroke-linejoin:miter;stroke-opacity:1" />
  <path
     id="path5628"
     d="M 34.502464,-20.312295 52.34335,-25.092748"
     style="fill:none;fill-rule:evenodd;stroke:#ff0000;stroke-width:0.40000105px;stroke-linecap:butt;stroke-linejoin:miter;stroke-opacity:1" />
  <path
     id="path5630"
     d="M 50.061776,11.826623 18.30547,-19.92969"
     style="fill:none;fill-rule:evenodd;stroke:#ff0000;stroke-width:0.40000105px;stroke-linecap:butt;stroke-linejoin:miter;stroke-opacity:1" />
  <path
     id="path5632"
     d="M -58.853426,26.620727 29.145978,-61.633757"
     style="fill:none;fill-rule:evenodd;stroke:#00ff00;stroke-width:0.40000105px;stroke-linecap:butt;stroke-linejoin:miter;stroke-opacity:1" />
  <path
     id="path5634"
     d="M 52.102341,-3.732694 33.992322,-58.062766"
     style="fill:none;fill-rule:evenodd;stroke:#ff0000;stroke-width:0.40000105px;stroke-linecap:butt;stroke-linejoin:miter;stroke-opacity:1" />
  <path
     d="m -42.49272,-66.116508 c 0,-0.472597 -0.3789,-0.851498 -0.8515,-0.851498 -0.4688,0 -0.8477,0.378901 -0.8477,0.851498 0,0.468801 0.3789,0.847702 0.8477,0.847702 0.4726,0 0.8515,-0.378901 0.8515,-0.847702 z"
     id="path5636"
     style="fill:#000000;fill-opacity:1" />
  <path
     style="fill:#000000;fill-opacity:1"
     id="path5638"
     d="m -67.112167,-19.312501 c 0,-0.472597 -0.3789,-0.851498 -0.8515,-0.851498 -0.4688,0 -0.8477,0.378901 -0.8477,0.851498 0,0.468801 0.3789,0.847702 0.8477,0.847702 0.4726,0 0.8515,-0.378901 0.8515,-0.847702 z" />
  <path
     d="m -70.3008,-5.0085848 c 0,-0.472597 -0.3789,-0.851498 -0.8515,-0.851498 -0.4688,0 -0.8477,0.378901 -0.8477,0.851498 0,0.468801 0.3789,0.847702 0.8477,0.847702 0.4726,0 0.8515,-0.378901 0.8515,-0.847702 z"
     id="path5640"
     style="fill:#000000;fill-opacity:1" />
  <path
     style="fill:#000000;fill-opacity:1"
     id="path5642"
     d="m 12.96867,-29.052063 c 0,-0.472597 -0.3789,-0.851498 -0.8515,-0.851498 -0.4688,0 -0.8477,0.378901 -0.8477,0.851498 0,0.468801 0.3789,0.847702 0.8477,0.847702 0.4726,0 0.8515,-0.378901 0.8515,-0.847702 z" />
  <path
     d="m -40.86635,-34.431986 c 0,-0.472597 -0.3789,-0.851498 -0.8515,-0.851498 -0.4688,0 -0.8477,0.378901 -0.8477,0.851498 0,0.468801 0.3789,0.847702 0.8477,0.847702 0.4726,0 0.8515,-0.378901 0.8515,-0.847702 z"
     id="path5644"
     style="fill:#000000;fill-opacity:1" />
  <path
     style="fill:#000000;fill-opacity:1"
     id="path5646"
     d="m -53.109745,-21.933518 c 0,-0.472597 -0.3789,-0.851498 -0.8515,-0.851498 -0.4688,0 -0.8477,0.378901 -0.8477,0.851498 0,0.468801 0.3789,0.847702 0.8477,0.847702 0.4726,0 0.8515,-0.378901 0.8515,-0.847702 z" />
  <path
     style="fill:#000000;fill-opacity:1"
     id="path5648"
     d="m -56.059201,-61.534098 c 0,-0.472597 -0.3789,-0.851498 -0.8515,-0.851498 -0.4688,0 -0.8477,0.378901 -0.8477,0.851498 0,0.468801 0.3789,0.847702 0.8477,0.847702 0.4726,0 0.8515,-0.378901 0.8515,-0.847702 z" />
  <path
     style="fill:none;fill-rule:evenodd;stroke:#00ff00;stroke-width:0.40000105px;stroke-linecap:butt;stroke-linejoin:miter;stroke-opacity:1"
     d="m -30.998081,-33.888066 45.978858,0"
     id="path4414" />
  <path
     d="m 16.148757,-33.921844 c 0,-0.472597 -0.3789,-0.851498 -0.8515,-0.851498 -0.4688,0 -0.8477,0.378901 -0.8477,0.851498 0,0.468801 0.3789,0.847702 0.8477,0.847702 0.4726,0 0.8515,-0.378901 0.8515,-0.847702 z"
     id="path4402"
     style="fill:#000000;fill-opacity:1" />
  <path
     style="fill:#000000;fill-opacity:1"
     id="path5650"
     d="m 56.832539,-31.052298 c 0,-0.472597 -0.3789,-0.851498 -0.8515,-0.851498 -0.4688,0 -0.8477,0.378901 -0.8477,0.851498 0,0.468801 0.3789,0.847702 0.8477,0.847702 0.4726,0 0.8515,-0.378901 0.8515,-0.847702 z" />
  <path
     d="m 34.960224,-57.962263 c 0,-0.472597 -0.3789,-0.851498 -0.8515,-0.851498 -0.4688,0 -0.8477,0.378901 -0.8477,0.851498 0,0.468801 0.3789,0.847702 0.8477,0.847702 0.4726,0 0.8515,-0.378901 0.8515,-0.847702 z"
     id="path5652"
     style="fill:#000000;fill-opacity:1" />
  <path
     style="fill:#000000;fill-opacity:1"
     id="path5654"
     d="m 29.922577,-61.533254 c 0,-0.472597 -0.3789,-0.851498 -0.8515,-0.851498 -0.4688,0 -0.8477,0.378901 -0.8477,0.851498 0,0.468801 0.3789,0.847702 0.8477,0.847702 0.4726,0 0.8515,-0.378901 0.8515,-0.847702 z" />
  <path
     style="fill:#000000;fill-opacity:1"
     id="path5656"
     d="m 53.389084,-25.249438 c 0,-0.472597 -0.3789,-0.851498 -0.8515,-0.851498 -0.4688,0 -0.8477,0.378901 -0.8477,0.851498 0,0.468801 0.3789,0.847702 0.8477,0.847702 0.4726,0 0.8515,-0.378901 0.8515,-0.847702 z" />
  <path
     d="m 35.406597,-20.275558 c 0,-0.472597 -0.3789,-0.851498 -0.8515,-0.851498 -0.4688,0 -0.8477,0.378901 -0.8477,0.851498 0,0.468801 0.3789,0.847702 0.8477,0.847702 0.4726,0 0.8515,-0.378901 0.8515,-0.847702 z"
     id="path5658"
     style="fill:#000000;fill-opacity:1" />
  <path
     style="fill:#000000;fill-opacity:1"
     id="path5660"
     d="m 53.134013,-3.568423 c 0,-0.472597 -0.3789,-0.851498 -0.8515,-0.851498 -0.4688,0 -0.8477,0.378901 -0.8477,0.851498 0,0.468801 0.3789,0.847702 0.8477,0.847702 0.4726,0 0.8515,-0.378901 0.8515,-0.847702 z" />
  <path
     d="m 50.965912,11.735822 c 0,-0.472597 -0.3789,-0.851498 -0.8515,-0.851498 -0.4688,0 -0.8477,0.378901 -0.8477,0.851498 0,0.468801 0.3789,0.847702 0.8477,0.847702 0.4726,0 0.8515,-0.378901 0.8515,-0.847702 z"
     id="path5662"
     style="fill:#000000;fill-opacity:1" />
  <path
     style="fill:#000000;fill-opacity:1"
     id="path5664"
     d="m 19.592212,-19.637881 c 0,-0.472597 -0.3789,-0.851498 -0.8515,-0.851498 -0.4688,0 -0.8477,0.378901 -0.8477,0.851498 0,0.468801 0.3789,0.847702 0.8477,0.847702 0.4726,0 0.8515,-0.378901 0.8515,-0.847702 z" />
  <path
     style="fill:#000000;fill-opacity:1"
     id="path5666"
     d="m -58.057405,26.620189 c 0,-0.472597 -0.3789,-0.851498 -0.8515,-0.851498 -0.4688,0 -0.8477,0.378901 -0.8477,0.851498 0,0.468801 0.3789,0.847702 0.8477,0.847702 0.4726,0 0.8515,-0.378901 0.8515,-0.847702 z" />
</svg>
